<svg xmlns="http://www.w3.org/2000/svg" xmlns:xlink="http://www.w3.org/1999/xlink" width="160" zoomAndPan="magnify" viewBox="0 0 120 37.5" height="50" preserveAspectRatio="xMidYMid meet" version="1.0"><defs><g/><clipPath id="50cef655db"><path d="M 25.484375 17.179688 L 37.378906 17.179688 L 37.378906 27.425781 L 25.484375 27.425781 Z M 25.484375 17.179688 " clip-rule="nonzero"/></clipPath><clipPath id="a21226c1e1"><path d="M 25.484375 17.179688 L 37.328125 17.179688 L 37.328125 27.542969 L 25.484375 27.542969 Z M 25.484375 17.179688 " clip-rule="nonzero"/></clipPath><clipPath id="ed20f9e95f"><path d="M 85.144531 9.953125 L 118.523438 9.953125 L 118.523438 30.105469 L 85.144531 30.105469 Z M 85.144531 9.953125 " clip-rule="nonzero"/></clipPath><clipPath id="adfd0f7694"><path d="M 98.191406 9.953125 L 117.390625 9.953125 C 117.761719 9.953125 118.105469 10.152344 118.292969 10.476562 C 118.476562 10.800781 118.472656 11.199219 118.28125 11.519531 L 108.203125 28.539062 C 107.628906 29.511719 106.582031 30.105469 105.453125 30.105469 L 86.257812 30.105469 C 85.886719 30.105469 85.539062 29.90625 85.355469 29.582031 C 85.171875 29.257812 85.175781 28.859375 85.363281 28.539062 L 95.445312 11.519531 C 96.019531 10.546875 97.0625 9.953125 98.191406 9.953125 Z M 98.191406 9.953125 " clip-rule="nonzero"/></clipPath></defs><g fill="#ffffff" fill-opacity="1"><g transform="translate(3.149747, 29.967416)"><g><path d="M 6.421875 -17.328125 L 10.640625 -7.90625 L 14.859375 -17.328125 L 21.953125 -17.328125 L 12.65625 0 L 8.609375 0 L -0.671875 -17.328125 Z M 6.421875 -17.328125 "/></g></g></g><g fill="#ffffff" fill-opacity="1"><g transform="translate(21.551914, 29.967416)"><g><path d="M 3.203125 -2.140625 C 1.585938 -3.910156 0.78125 -6.078125 0.78125 -8.640625 C 0.78125 -11.210938 1.585938 -13.382812 3.203125 -15.15625 C 4.828125 -16.9375 6.890625 -17.828125 9.390625 -17.828125 C 11.679688 -17.828125 13.570312 -17.109375 15.0625 -15.671875 L 15.0625 -17.328125 L 21.03125 -17.328125 L 21.03125 0 L 15.125 0 L 15.125 -1.953125 L 15.0625 -1.953125 C 13.570312 -0.316406 11.679688 0.5 9.390625 0.5 C 6.890625 0.5 4.828125 -0.378906 3.203125 -2.140625 Z M 8.28125 -11.578125 C 7.507812 -10.816406 7.125 -9.835938 7.125 -8.640625 C 7.125 -7.453125 7.492188 -6.476562 8.234375 -5.71875 C 8.984375 -4.96875 9.960938 -4.59375 11.171875 -4.59375 C 12.347656 -4.59375 13.3125 -4.972656 14.0625 -5.734375 C 14.8125 -6.503906 15.1875 -7.472656 15.1875 -8.640625 C 15.1875 -9.835938 14.796875 -10.816406 14.015625 -11.578125 C 13.242188 -12.347656 12.296875 -12.734375 11.171875 -12.734375 C 10.023438 -12.734375 9.0625 -12.347656 8.28125 -11.578125 Z M 8.28125 -11.578125 "/></g></g></g><g fill="#ffffff" fill-opacity="1"><g transform="translate(41.743679, 29.967416)"><g><path d="M 9.5625 -17.828125 C 10.550781 -17.828125 11.523438 -17.710938 12.484375 -17.484375 C 13.453125 -17.265625 14.175781 -17.039062 14.65625 -16.8125 L 15.359375 -16.484375 L 13.40625 -12.5625 C 12.050781 -13.28125 10.769531 -13.640625 9.5625 -13.640625 C 8.882812 -13.640625 8.40625 -13.566406 8.125 -13.421875 C 7.84375 -13.273438 7.703125 -13 7.703125 -12.59375 C 7.703125 -12.5 7.710938 -12.40625 7.734375 -12.3125 C 7.753906 -12.226562 7.796875 -12.144531 7.859375 -12.0625 C 7.929688 -11.988281 7.992188 -11.921875 8.046875 -11.859375 C 8.109375 -11.804688 8.207031 -11.742188 8.34375 -11.671875 C 8.476562 -11.609375 8.582031 -11.5625 8.65625 -11.53125 C 8.738281 -11.5 8.867188 -11.445312 9.046875 -11.375 C 9.222656 -11.3125 9.359375 -11.257812 9.453125 -11.21875 C 9.546875 -11.1875 9.695312 -11.132812 9.90625 -11.0625 C 10.125 -11 10.289062 -10.957031 10.40625 -10.9375 C 11.101562 -10.738281 11.707031 -10.515625 12.21875 -10.265625 C 12.738281 -10.015625 13.285156 -9.675781 13.859375 -9.25 C 14.429688 -8.820312 14.875 -8.28125 15.1875 -7.625 C 15.507812 -6.976562 15.671875 -6.238281 15.671875 -5.40625 C 15.671875 -1.46875 12.9375 0.5 7.46875 0.5 C 6.226562 0.5 5.050781 0.3125 3.9375 -0.0625 C 2.820312 -0.445312 2.015625 -0.832031 1.515625 -1.21875 L 0.78125 -1.828125 L 3.203125 -5.90625 C 3.390625 -5.75 3.628906 -5.5625 3.921875 -5.34375 C 4.210938 -5.132812 4.738281 -4.84375 5.5 -4.46875 C 6.269531 -4.101562 6.9375 -3.921875 7.5 -3.921875 C 8.738281 -3.921875 9.359375 -4.335938 9.359375 -5.171875 C 9.359375 -5.546875 9.195312 -5.835938 8.875 -6.046875 C 8.5625 -6.265625 8.023438 -6.507812 7.265625 -6.78125 C 6.515625 -7.050781 5.925781 -7.300781 5.5 -7.53125 C 4.425781 -8.09375 3.570312 -8.726562 2.9375 -9.4375 C 2.300781 -10.144531 1.984375 -11.082031 1.984375 -12.25 C 1.984375 -14.007812 2.664062 -15.378906 4.03125 -16.359375 C 5.394531 -17.335938 7.238281 -17.828125 9.5625 -17.828125 Z M 9.5625 -17.828125 "/></g></g></g><g fill="#ffffff" fill-opacity="1"><g transform="translate(55.486139, 29.967416)"><g><path d="M 2.59375 -26.984375 C 3.289062 -27.679688 4.125 -28.03125 5.09375 -28.03125 C 6.0625 -28.03125 6.894531 -27.679688 7.59375 -26.984375 C 8.289062 -26.285156 8.640625 -25.453125 8.640625 -24.484375 C 8.640625 -23.515625 8.289062 -22.679688 7.59375 -21.984375 C 6.894531 -21.285156 6.0625 -20.9375 5.09375 -20.9375 C 4.125 -20.9375 3.289062 -21.285156 2.59375 -21.984375 C 1.894531 -22.679688 1.546875 -23.515625 1.546875 -24.484375 C 1.546875 -25.453125 1.894531 -26.285156 2.59375 -26.984375 Z M 2.03125 -17.328125 L 2.03125 0 L 8 0 L 8 -17.328125 Z M 2.03125 -17.328125 "/></g></g></g><g fill="#ffffff" fill-opacity="1"><g transform="translate(62.813066, 29.967416)"><g><path d="M 2.03125 0 L 2.03125 -17.328125 L 8 -17.328125 L 8 -15.5 L 8.0625 -15.5 C 9.625 -17.050781 11.28125 -17.828125 13.03125 -17.828125 C 13.882812 -17.828125 14.734375 -17.710938 15.578125 -17.484375 C 16.421875 -17.265625 17.226562 -16.914062 18 -16.4375 C 18.78125 -15.96875 19.410156 -15.300781 19.890625 -14.4375 C 20.378906 -13.570312 20.625 -12.5625 20.625 -11.40625 L 20.625 0 L 14.65625 0 L 14.65625 -9.796875 C 14.65625 -10.691406 14.367188 -11.476562 13.796875 -12.15625 C 13.222656 -12.832031 12.472656 -13.171875 11.546875 -13.171875 C 10.648438 -13.171875 9.832031 -12.820312 9.09375 -12.125 C 8.363281 -11.425781 8 -10.648438 8 -9.796875 L 8 0 Z M 2.03125 0 "/></g></g></g><g clip-path="url(#50cef655db)"><path fill="#ffffff" d="M 25.484375 17.179688 L 37.371094 17.179688 L 37.371094 27.425781 L 25.484375 27.425781 Z M 25.484375 17.179688 " fill-opacity="1" fill-rule="nonzero"/></g><g clip-path="url(#a21226c1e1)"><path fill="#222222" d="M 33.738281 22.585938 C 33.335938 22.585938 33.011719 22.257812 33.011719 21.855469 C 33.011719 21.453125 33.335938 21.128906 33.738281 21.128906 C 34.140625 21.128906 34.464844 21.453125 34.464844 21.855469 C 34.464844 22.257812 34.140625 22.585938 33.738281 22.585938 Z M 31.3125 22.585938 C 30.910156 22.585938 30.585938 22.257812 30.585938 21.855469 C 30.585938 21.453125 30.910156 21.128906 31.3125 21.128906 C 31.714844 21.128906 32.039062 21.453125 32.039062 21.855469 C 32.039062 22.257812 31.714844 22.585938 31.3125 22.585938 Z M 28.886719 22.585938 C 28.484375 22.585938 28.15625 22.257812 28.15625 21.855469 C 28.15625 21.453125 28.484375 21.128906 28.886719 21.128906 C 29.289062 21.128906 29.613281 21.453125 29.613281 21.855469 C 29.613281 22.257812 29.289062 22.585938 28.886719 22.585938 Z M 31.503906 17.246094 C 28.238281 17.179688 25.550781 19.191406 25.503906 21.734375 C 25.484375 22.621094 25.789062 23.453125 26.328125 24.167969 C 27.257812 25.359375 26.246094 27.414062 26.246094 27.414062 L 29.238281 26.125 C 29.886719 26.328125 30.585938 26.445312 31.320312 26.460938 C 34.585938 26.527344 37.269531 24.515625 37.320312 21.96875 C 37.371094 19.425781 34.765625 17.308594 31.503906 17.246094 " fill-opacity="1" fill-rule="evenodd"/></g><g clip-path="url(#ed20f9e95f)"><g clip-path="url(#adfd0f7694)"><path fill="#1ab79d" d="M 84.4375 9.953125 L 119.234375 9.953125 L 119.234375 30.105469 L 84.4375 30.105469 Z M 84.4375 9.953125 " fill-opacity="1" fill-rule="nonzero"/></g></g><g fill="#ffffff" fill-opacity="1"><g transform="translate(89.496286, 28.351046)"><g><path d="M 2.9375 -3.609375 C 3.476562 -3.609375 3.9375 -3.421875 4.3125 -3.046875 C 4.6875 -2.671875 4.875 -2.210938 4.875 -1.671875 C 4.875 -1.140625 4.6875 -0.6875 4.3125 -0.3125 C 3.9375 0.0625 3.476562 0.25 2.9375 0.25 C 2.40625 0.25 1.953125 0.0625 1.578125 -0.3125 C 1.203125 -0.6875 1.015625 -1.140625 1.015625 -1.671875 C 1.015625 -2.210938 1.203125 -2.671875 1.578125 -3.046875 C 1.953125 -3.421875 2.40625 -3.609375 2.9375 -3.609375 Z M 2.9375 -3.609375 "/></g></g></g><g fill="#ffffff" fill-opacity="1"><g transform="translate(94.42601, 28.351046)"><g><path d="M 1.515625 -8.671875 L 1.515625 -10.5 C 1.523438 -11.800781 1.828125 -12.835938 2.421875 -13.609375 C 3.023438 -14.390625 3.859375 -14.78125 4.921875 -14.78125 C 5.367188 -14.78125 5.796875 -14.710938 6.203125 -14.578125 C 6.617188 -14.453125 6.914062 -14.320312 7.09375 -14.1875 L 7.375 -14 L 6.328125 -11.890625 C 6.054688 -12.046875 5.757812 -12.125 5.4375 -12.125 C 5.0625 -12.125 4.8125 -12 4.6875 -11.75 C 4.570312 -11.5 4.515625 -11.054688 4.515625 -10.421875 L 4.515625 -8.671875 L 6.5 -8.671875 L 6.5 -6.390625 L 4.515625 -6.390625 L 4.515625 0 L 1.515625 0 L 1.515625 -6.390625 L 0.265625 -6.390625 L 0.265625 -8.671875 Z M 1.515625 -8.671875 "/></g></g></g><g fill="#ffffff" fill-opacity="1"><g transform="translate(99.794693, 28.351046)"><g><path d="M 1.015625 0 L 1.015625 -8.671875 L 4 -8.671875 L 4 -7.421875 L 4.03125 -7.421875 C 4.0625 -7.460938 4.097656 -7.515625 4.140625 -7.578125 C 4.191406 -7.648438 4.300781 -7.769531 4.46875 -7.9375 C 4.644531 -8.101562 4.828125 -8.253906 5.015625 -8.390625 C 5.203125 -8.523438 5.445312 -8.644531 5.75 -8.75 C 6.0625 -8.863281 6.375 -8.921875 6.6875 -8.921875 C 7.007812 -8.921875 7.328125 -8.875 7.640625 -8.78125 C 7.960938 -8.6875 8.195312 -8.597656 8.34375 -8.515625 L 8.578125 -8.375 L 7.328125 -5.84375 C 6.953125 -6.15625 6.4375 -6.3125 5.78125 -6.3125 C 5.414062 -6.3125 5.101562 -6.234375 4.84375 -6.078125 C 4.582031 -5.921875 4.398438 -5.726562 4.296875 -5.5 C 4.191406 -5.28125 4.113281 -5.09375 4.0625 -4.9375 C 4.019531 -4.78125 4 -4.65625 4 -4.5625 L 4 0 Z M 1.015625 0 "/></g></g></g></svg>